# Blender v2.90.1 OBJ File: 'StethescopeModels.blend'
# www.blender.org
mtllib StethescopeModels.mtl
v 0.001463 -0.014856 0.015777
v -0.001463 -0.014856 -0.000223
v 0.004333 -0.014285 -0.000223
v 0.007037 -0.013165 0.015777
v 0.009470 -0.011539 -0.000223
v 0.011539 -0.009470 0.015777
v 0.013165 -0.007037 -0.000223
v 0.014285 -0.004333 0.015777
v 0.014856 -0.001463 -0.000223
v 0.014856 0.001463 0.015777
v 0.014285 0.004333 -0.000223
v 0.013165 0.007037 0.015777
v 0.011539 0.009470 -0.000223
v 0.009470 0.011539 0.015777
v 0.007037 0.013165 -0.000223
v 0.004333 0.014285 0.015777
v 0.001463 0.014856 -0.000223
v -0.001463 0.014856 0.015777
v -0.000000 -0.000000 -0.000223
v -0.004333 0.014285 -0.000223
v -0.007037 0.013165 0.015777
v -0.009470 0.011539 -0.000223
v -0.011539 0.009470 0.015777
v -0.013165 0.007037 -0.000223
v -0.014285 0.004333 0.015777
v -0.014856 0.001463 -0.000223
v -0.014856 -0.001463 0.015777
v -0.014285 -0.004333 -0.000223
v -0.013165 -0.007037 0.015777
v -0.011539 -0.009470 -0.000223
v -0.009470 -0.011539 0.015777
v -0.007037 -0.013165 -0.000223
v -0.004333 -0.014285 0.015777
v -0.000052 -0.000026 -0.000000
v -0.000060 0.000254 -0.000000
v 0.000060 -0.000015 -0.000000
v 0.000060 0.000015 -0.000000
v -0.000000 -0.000000 0.015777
vt 1.000000 0.500000
vt 1.000000 1.000000
vt 0.968750 1.000000
vt 0.968750 0.500000
vt 0.937500 1.000000
vt 0.937500 0.500000
vt 0.906250 1.000000
vt 0.906250 0.500000
vt 0.875000 1.000000
vt 0.875000 0.500000
vt 0.843750 1.000000
vt 0.843750 0.500000
vt 0.812500 1.000000
vt 0.812500 0.500000
vt 0.781250 1.000000
vt 0.781250 0.500000
vt 0.750000 1.000000
vt 0.750000 0.500000
vt 0.718750 1.000000
vt 0.718750 0.500000
vt 0.687500 1.000000
vt 0.687500 0.500000
vt 0.656250 1.000000
vt 0.656250 0.500000
vt 0.625000 1.000000
vt 0.625000 0.500000
vt 0.593750 1.000000
vt 0.593750 0.500000
vt 0.562500 1.000000
vt 0.562500 0.500000
vt 0.531250 1.000000
vt 0.531250 0.500000
vt 0.500000 1.000000
vt 0.500000 0.500000
vt 0.468750 1.000000
vt 0.468750 0.500000
vt 0.437500 1.000000
vt 0.437500 0.500000
vt 0.406250 1.000000
vt 0.406250 0.500000
vt 0.375000 1.000000
vt 0.375000 0.500000
vt 0.343750 1.000000
vt 0.343750 0.500000
vt 0.312500 1.000000
vt 0.312500 0.500000
vt 0.281250 1.000000
vt 0.281250 0.500000
vt 0.250000 1.000000
vt 0.250000 0.500000
vt 0.218750 1.000000
vt 0.218750 0.500000
vt 0.187500 1.000000
vt 0.187500 0.500000
vt 0.156250 1.000000
vt 0.156250 0.500000
vt 0.125000 1.000000
vt 0.125000 0.500000
vt 0.093750 1.000000
vt 0.093750 0.500000
vt 0.062500 1.000000
vt 0.062500 0.500000
vt 0.000000 0.000000
vt 0.031250 1.000000
vt 0.031250 0.500000
vt 0.000000 1.000000
vt 0.000000 0.500000
vt 0.000000 0.000000
vn 0.0980 -0.9950 -0.0179
vn 0.2902 -0.9568 0.0179
vn 0.4713 -0.8818 -0.0179
vn 0.6343 -0.7729 0.0179
vn 0.7729 -0.6343 -0.0179
vn 0.8818 -0.4713 0.0179
vn 0.9568 -0.2902 -0.0179
vn 0.9950 -0.0980 0.0179
vn 0.9950 0.0980 -0.0179
vn 0.9568 0.2902 0.0179
vn 0.8818 0.4713 -0.0179
vn 0.7729 0.6343 0.0179
vn 0.6343 0.7729 -0.0179
vn 0.4713 0.8818 0.0179
vn 0.2902 0.9568 -0.0179
vn 0.0980 0.9950 0.0179
vn -0.0980 0.9950 -0.0179
vn -0.2902 0.9568 0.0179
vn -0.4713 0.8818 -0.0179
vn -0.6343 0.7729 0.0179
vn -0.7729 0.6343 -0.0179
vn -0.8818 0.4713 0.0179
vn -0.9568 0.2902 -0.0179
vn -0.9950 0.0980 0.0179
vn -0.9950 -0.0980 -0.0179
vn -0.9568 -0.2902 0.0179
vn -0.8818 -0.4713 -0.0179
vn -0.7729 -0.6343 0.0179
vn -0.6343 -0.7729 -0.0179
vn -0.4713 -0.8818 0.0179
vn -0.0000 0.0000 -1.0000
vn -0.2902 -0.9568 -0.0179
vn -0.0980 -0.9950 0.0179
vn 0.0000 -0.0000 1.0000
usemtl None
s off
f 1/1/1 2/2/1 3/3/1
f 1/4/2 3/5/2 4/6/2
f 4/6/3 3/5/3 5/7/3
f 4/8/4 5/9/4 6/10/4
f 6/10/5 5/9/5 7/11/5
f 6/12/6 7/13/6 8/14/6
f 8/14/7 7/13/7 9/15/7
f 8/16/8 9/17/8 10/18/8
f 10/18/9 9/17/9 11/19/9
f 10/20/10 11/21/10 12/22/10
f 12/22/11 11/21/11 13/23/11
f 12/24/12 13/25/12 14/26/12
f 14/26/13 13/25/13 15/27/13
f 14/28/14 15/29/14 16/30/14
f 16/30/15 15/29/15 17/31/15
f 16/32/16 17/33/16 18/34/16
f 18/34/17 17/33/17 20/35/17
f 18/36/18 20/37/18 21/38/18
f 21/38/19 20/37/19 22/39/19
f 21/40/20 22/41/20 23/42/20
f 23/42/21 22/41/21 24/43/21
f 23/44/22 24/45/22 25/46/22
f 25/46/23 24/45/23 26/47/23
f 25/48/24 26/49/24 27/50/24
f 27/50/25 26/49/25 28/51/25
f 27/52/26 28/53/26 29/54/26
f 29/54/27 28/53/27 30/55/27
f 29/56/28 30/57/28 31/58/28
f 31/58/29 30/57/29 32/59/29
f 31/60/30 32/61/30 33/62/30
f 19/63/31 20/35/31 17/33/31
f 33/62/32 32/61/32 2/64/32
f 33/65/33 2/66/33 1/67/33
f 25/46/34 38/68/34 23/44/34
f 20/37/31 19/63/31 22/39/31
f 24/43/31 22/41/31 19/63/31
f 24/45/31 19/63/31 26/47/31
f 26/49/31 19/63/31 28/51/31
f 30/55/31 28/53/31 19/63/31
f 32/59/31 30/57/31 19/63/31
f 19/63/31 2/64/31 32/59/31
f 2/64/31 19/63/31 3/3/31
f 3/3/31 19/63/31 5/7/31
f 5/7/31 19/63/31 7/11/31
f 7/11/31 19/63/31 9/15/31
f 19/63/31 11/19/31 9/15/31
f 19/63/31 13/23/31 11/19/31
f 19/63/31 15/27/31 13/23/31
f 15/27/31 19/63/31 17/33/31
f 23/44/34 38/68/34 21/40/34
f 18/36/34 21/40/34 38/68/34
f 18/36/34 38/68/34 16/32/34
f 16/32/34 38/68/34 14/28/34
f 14/28/34 38/68/34 12/24/34
f 12/24/34 38/68/34 10/20/34
f 10/20/34 38/68/34 8/16/34
f 8/16/34 38/68/34 6/12/34
f 6/10/34 38/68/34 4/8/34
f 4/8/34 38/68/34 1/4/34
f 1/4/34 38/68/34 33/65/34
f 33/65/34 38/68/34 31/60/34
f 31/60/34 38/68/34 29/56/34
f 29/56/34 38/68/34 27/52/34
f 27/52/34 38/68/34 25/46/34
l 34 35
l 35 36
l 36 37
