# Blender v2.82 (sub 7) OBJ File: ''
# www.blender.org
mtllib weldingcart.mtl
o cart.001
v 0.288218 -0.437746 0.180327
v 0.288218 0.718154 0.180327
v -0.291782 -0.437746 0.180327
v -0.291782 0.718154 0.180327
v -0.291782 -0.437746 0.023527
v -0.291782 0.718154 0.023527
v 0.288218 0.718154 0.023527
v 0.288218 -0.437746 0.023527
v 0.268618 -0.342846 -0.017173
v 0.268618 -0.406346 -0.017173
v 0.268618 -0.311146 -0.072173
v 0.268618 -0.406346 -0.127173
v 0.268618 -0.438146 -0.072173
v 0.268618 -0.342846 -0.127173
v 0.249118 -0.342846 -0.127173
v 0.249118 -0.406346 -0.127173
v 0.249118 -0.311146 -0.072173
v 0.249118 -0.406346 -0.017173
v 0.249118 -0.342846 -0.017173
v 0.249118 -0.438146 -0.072173
v 0.268618 -0.421546 -0.100973
v 0.249118 -0.422246 -0.099673
v 0.249118 -0.374546 -0.127173
v 0.249118 -0.327746 -0.100973
v 0.268618 -0.326946 -0.099673
v 0.268618 -0.374546 -0.127173
v 0.268618 -0.327746 -0.043473
v 0.249118 -0.326946 -0.044673
v 0.249118 -0.374546 -0.017173
v 0.249118 -0.421546 -0.043473
v 0.268618 -0.422246 -0.044673
v 0.268618 -0.374546 -0.017173
v -0.270182 -0.341146 -0.127173
v -0.270182 -0.404746 -0.127173
v -0.270182 -0.404746 -0.017173
v -0.270182 -0.436446 -0.072173
v -0.270182 -0.309446 -0.072173
v -0.270182 -0.341146 -0.017173
v -0.250581 -0.341146 -0.017173
v -0.250581 -0.404746 -0.017173
v -0.250581 -0.309446 -0.072173
v -0.250581 -0.404746 -0.127173
v -0.250581 -0.341146 -0.127173
v -0.250581 -0.436446 -0.072173
v -0.270182 -0.326046 -0.100973
v -0.250581 -0.325346 -0.099673
v -0.250581 -0.372946 -0.127173
v -0.250581 -0.419846 -0.100973
v -0.270182 -0.420546 -0.099673
v -0.270182 -0.372946 -0.127173
v -0.270182 -0.419846 -0.043473
v -0.250581 -0.420546 -0.044673
v -0.250581 -0.372946 -0.017173
v -0.250581 -0.326046 -0.043473
v -0.270182 -0.325346 -0.044673
v -0.270182 -0.372946 -0.017173
v -0.270182 0.637454 -0.017173
v -0.270182 0.700954 -0.017173
v -0.270182 0.605754 -0.072173
v -0.270182 0.700954 -0.127173
v -0.270182 0.732754 -0.072173
v -0.270182 0.637454 -0.127173
v -0.250581 0.637454 -0.127173
v -0.250581 0.700954 -0.127173
v -0.250581 0.605754 -0.072173
v -0.250581 0.700954 -0.017173
v -0.250581 0.637454 -0.017173
v -0.250581 0.732754 -0.072173
v -0.270182 0.716154 -0.100973
v -0.250581 0.716854 -0.099673
v -0.250581 0.669254 -0.127173
v -0.250581 0.622354 -0.100973
v -0.270182 0.621554 -0.099673
v -0.270182 0.669254 -0.127173
v -0.270182 0.622354 -0.043473
v -0.250581 0.621554 -0.044673
v -0.250581 0.669254 -0.017173
v -0.250581 0.716154 -0.043473
v -0.270182 0.716854 -0.044673
v -0.270182 0.669254 -0.017173
v 0.268618 0.635754 -0.127173
v 0.268618 0.699354 -0.127173
v 0.268618 0.699354 -0.017173
v 0.268618 0.731054 -0.072173
v 0.268618 0.604054 -0.072173
v 0.268618 0.635754 -0.017173
v 0.249118 0.635754 -0.017173
v 0.249118 0.699354 -0.017173
v 0.249118 0.604054 -0.072173
v 0.249118 0.699354 -0.127173
v 0.249118 0.635754 -0.127173
v 0.249118 0.731054 -0.072173
v 0.268618 0.620654 -0.100973
v 0.249118 0.619954 -0.099673
v 0.249118 0.667554 -0.127173
v 0.249118 0.714454 -0.100973
v 0.268618 0.715154 -0.099673
v 0.268618 0.667554 -0.127173
v 0.268618 0.714454 -0.043473
v 0.249118 0.715154 -0.044673
v 0.249118 0.667554 -0.017173
v 0.249118 0.620654 -0.043473
v 0.268618 0.619954 -0.044673
v 0.268618 0.667554 -0.017173
v -0.257882 0.683254 0.180327
v -0.241182 0.702354 0.180327
v -0.282782 0.688154 0.180327
v -0.249382 0.726454 0.180327
v -0.290982 0.712154 0.180327
v -0.274282 0.731354 0.180327
v -0.290982 0.712154 -0.023873
v -0.274282 0.731354 -0.023873
v -0.282782 0.688154 -0.023873
v -0.249382 0.726454 -0.023873
v -0.241182 0.702354 -0.023873
v -0.257882 0.683254 -0.023873
v -0.261781 0.728854 0.180327
v -0.258482 0.728254 -0.023873
v -0.282582 0.721754 0.180327
v -0.282582 0.721754 -0.023873
v -0.285781 0.696954 0.180327
v -0.286882 0.700154 -0.023873
v -0.270381 0.685754 0.180327
v -0.273682 0.686354 -0.023873
v -0.249482 0.692754 0.180327
v -0.249482 0.692754 -0.023873
v -0.246381 0.717654 0.180327
v -0.245282 0.714354 -0.023873
v 0.272718 0.729654 0.180327
v 0.247818 0.724754 0.180327
v 0.289419 0.710554 0.180327
v 0.239619 0.700654 0.180327
v 0.256319 0.681554 0.180327
v 0.281218 0.686554 0.180327
v 0.281218 0.686554 -0.023873
v 0.256319 0.681554 -0.023873
v 0.289419 0.710554 -0.023873
v 0.239619 0.700654 -0.023873
v 0.247818 0.724754 -0.023873
v 0.272718 0.729654 -0.023873
v 0.285318 0.698554 0.180327
v 0.284218 0.695254 -0.023873
v 0.281118 0.720054 0.180327
v 0.281118 0.720054 -0.023873
v 0.256918 0.726554 0.180327
v 0.260218 0.727154 -0.023873
v 0.244818 0.715954 -0.023873
v 0.248019 0.691154 0.180327
v 0.243719 0.712754 0.180327
v 0.248019 0.691154 -0.023873
v 0.272118 0.684754 0.180327
v 0.268818 0.684054 -0.023873
v 0.256319 -0.388646 0.180327
v 0.239619 -0.407746 0.180327
v 0.281218 -0.393546 0.180327
v 0.247818 -0.431846 0.180327
v 0.272718 -0.436746 0.180327
v 0.289419 -0.417646 0.180327
v 0.281218 -0.393546 -0.023873
v 0.289419 -0.417646 -0.023873
v 0.256319 -0.388646 -0.023873
v 0.239619 -0.407746 -0.023873
v 0.272718 -0.436746 -0.023873
v 0.247818 -0.431846 -0.023873
v 0.260218 -0.434246 0.180327
v 0.256918 -0.433646 -0.023873
v 0.281118 -0.427146 0.180327
v 0.281118 -0.427146 -0.023873
v 0.284218 -0.402346 0.180327
v 0.285318 -0.405546 -0.023873
v 0.268818 -0.391146 0.180327
v 0.272118 -0.391746 -0.023873
v 0.248019 -0.398146 0.180327
v 0.248019 -0.398146 -0.023873
v 0.244818 -0.423046 0.180327
v 0.243719 -0.419746 -0.023873
v -0.290982 -0.415946 0.180327
v -0.274282 -0.435046 0.180327
v -0.257882 -0.386946 0.180327
v -0.249382 -0.430146 0.180327
v -0.282782 -0.391946 0.180327
v -0.241182 -0.406046 0.180327
v -0.282782 -0.391946 -0.023873
v -0.257882 -0.386946 -0.023873
v -0.290982 -0.415946 -0.023873
v -0.274282 -0.435046 -0.023873
v -0.241182 -0.406046 -0.023873
v -0.249382 -0.430146 -0.023873
v -0.286882 -0.403946 0.180327
v -0.285781 -0.400646 -0.023873
v -0.282582 -0.425446 0.180327
v -0.282582 -0.425446 -0.023873
v -0.258482 -0.431946 0.180327
v -0.261781 -0.432546 -0.023873
v -0.246381 -0.421346 -0.023873
v -0.249482 -0.396546 0.180327
v -0.245282 -0.418146 0.180327
v -0.249482 -0.396546 -0.023873
v -0.273682 -0.390146 0.180327
v -0.270381 -0.389446 -0.023873
v 0.288218 0.718154 0.180327
v -0.289782 0.718154 0.180327
v -0.289782 0.146454 0.180327
v -0.289782 -0.437746 0.180327
v 0.288218 -0.437746 0.180327
v 0.288218 -0.437746 0.023527
v -0.289782 -0.437746 0.023527
v -0.289782 0.146454 0.023527
v -0.289782 0.718154 0.023527
v 0.288218 0.718154 0.023527
v -35.365681 -23.879147 -0.136373
v -35.365681 -23.879147 -0.441173
v -35.365681 -24.094646 -0.351873
v -35.365681 -24.183947 -0.136373
v -35.365681 -23.663645 0.079127
v -35.365681 -23.574347 -0.136373
v -35.365681 -23.879147 0.168427
v -35.365681 -23.879147 2.911627
v -35.365681 -23.879147 2.606827
v -35.365681 -24.094646 2.696127
v -35.365681 -24.183947 2.911627
v -35.365681 -23.663645 3.127127
v -35.365681 -23.574347 2.911627
v -35.365681 -23.879147 3.216427
v -35.365681 -23.879147 -0.441173
v -35.365681 -23.879147 -0.745973
v -35.365681 -24.094646 -0.656673
v -35.365681 -24.183947 -0.441173
v -35.365681 -23.663645 -0.225673
v -35.365681 -23.574347 -0.441173
v -35.365681 -23.879147 -0.136373
v -35.365681 -23.879147 -2.574773
v -35.365681 -23.879147 -2.879573
v -35.365681 -24.094646 -2.790273
v -35.365681 -24.183947 -2.574773
v -35.365681 -23.663645 -2.359273
v -35.365681 -23.574347 -2.574773
v -35.365681 -23.879147 -2.269973
v -35.365681 -23.879147 -2.879573
v -35.365681 -23.879147 -3.184373
v -35.365681 -24.094646 -3.095073
v -35.365681 -24.183947 -2.879573
v -35.365681 -23.663645 -2.664073
v -35.365681 -23.574347 -2.879573
v -35.365681 -23.879147 -2.574773
v -35.365681 -23.879147 -3.184373
v -35.365681 -23.879147 -3.489173
v -35.365681 -24.094646 -3.399873
v -35.365681 -24.183947 -3.184373
v -35.365681 -23.663645 -2.968873
v -35.365681 -23.574347 -3.184373
v -35.365681 -23.879147 -2.879573
v -35.365681 -23.879147 5.959627
v -35.365681 -23.879147 5.654827
v -35.365681 -24.094646 5.744127
v -35.365681 -24.183947 5.959627
v -35.365681 -23.663645 6.175127
v -35.365681 -23.574347 5.959627
v -35.365681 -23.879147 6.264427
vn 0.0000 0.0000 1.0000
vn 0.0000 0.0000 -1.0000
vn 0.0000 1.0000 0.0000
vn -1.0000 0.0000 0.0000
vn 0.0000 -1.0000 0.0000
vn 1.0000 0.0000 0.0000
vn -0.0023 -0.8657 -0.5005
vn 0.0000 -0.8657 -0.5005
vn -0.0022 -0.8664 -0.4994
vn -0.0022 0.8657 -0.5005
vn 0.0000 0.8664 -0.4993
vn -0.0023 0.8664 -0.4994
vn 0.0000 0.8671 -0.4982
vn 0.0000 -0.8650 -0.5018
vn 0.0047 0.8657 0.5005
vn 0.0000 0.8671 0.4982
vn 0.0047 0.8656 0.5007
vn -0.0003 -0.8657 0.5005
vn 0.0000 -0.8658 0.5004
vn -0.0003 -0.8656 0.5007
vn 0.0000 -0.8657 0.5005
vn 0.0000 0.8672 0.4979
vn 0.0021 0.8671 -0.4982
vn 0.0000 0.8657 -0.5005
vn 0.0022 0.8664 -0.4994
vn -0.0021 -0.8671 -0.4982
vn 0.0000 -0.8664 -0.4993
vn -0.0005 -0.8671 0.4982
vn 0.0005 0.8671 0.4982
vn 0.0003 0.8656 0.5007
vn 0.0000 0.8657 0.5005
vn 0.0000 -0.8672 0.4979
vn 0.0023 0.8657 -0.5005
vn 0.0021 -0.8657 -0.5005
vn 0.0022 -0.8664 -0.4994
vn 0.0000 -0.8671 -0.4982
vn 0.0000 0.8650 -0.5018
vn -0.0047 -0.8657 0.5005
vn 0.0000 -0.8671 0.4982
vn -0.0047 -0.8656 0.5007
vn 0.0003 0.8657 0.5005
vn 0.0000 0.8658 0.5004
vn 0.1961 0.9806 0.0000
vn 0.1925 0.9813 0.0002
vn 0.1900 0.9818 0.0002
vn -0.7526 0.6585 0.0000
vn 0.1940 0.9810 0.0000
vn -0.9463 -0.3233 0.0000
vn -0.9462 -0.3237 0.0000
vn -0.7565 0.6540 0.0000
vn -0.9465 -0.3226 0.0000
vn -0.1961 -0.9806 0.0000
vn -0.1925 -0.9813 0.0002
vn -0.1900 -0.9818 0.0002
vn 0.7565 -0.6540 0.0000
vn -0.1940 -0.9810 0.0000
vn 0.9471 0.3209 -0.0001
vn 0.9468 0.3218 -0.0001
vn 0.7491 -0.6624 0.0000
vn 0.9463 0.3233 0.0000
vn 0.9465 0.3227 0.0000
vn 0.9463 -0.3234 0.0000
vn 0.9468 -0.3218 0.0001
vn 0.9463 -0.3233 0.0001
vn 0.7526 0.6585 0.0000
vn 0.9454 -0.3260 0.0000
vn -0.1900 0.9818 -0.0002
vn -0.1925 0.9813 -0.0002
vn 0.7530 0.6580 0.0000
vn -0.1961 0.9806 0.0000
vn -0.1940 0.9810 0.0000
vn -0.9465 0.3227 0.0000
vn -0.7565 -0.6540 0.0000
vn -0.9468 0.3218 -0.0001
vn -0.9471 0.3209 0.0000
vn 0.1976 -0.9803 0.0002
vn 0.1985 -0.9801 0.0002
vn -0.9463 0.3233 -0.0000
vn 0.1961 -0.9806 0.0000
vn 0.1940 -0.9810 0.0000
vn -0.7491 -0.6624 0.0000
vn 0.7530 -0.6580 0.0000
vn 0.9468 0.3218 0.0001
vn 0.7526 -0.6585 0.0000
vn 0.9471 0.3210 0.0000
vn -0.9471 -0.3209 -0.0001
vn -0.9468 -0.3218 -0.0001
vn -0.7531 0.6579 0.0000
vn -0.9465 -0.3227 0.0000
vn -0.9468 0.3218 0.0001
vn -0.9463 0.3233 0.0001
vn -0.9454 0.3259 0.0000
vn 0.1900 -0.9818 -0.0002
vn 0.1925 -0.9813 -0.0002
vn 0.9465 -0.3227 0.0000
vn 0.9468 -0.3218 -0.0001
vn 0.9471 -0.3209 0.0000
vn -0.1976 0.9803 0.0002
vn -0.1985 0.9801 0.0002
vn 0.9463 -0.3233 -0.0000
vn 0.7531 0.6579 0.0000
g cart.001_cart.001_material_0.001
usemtl material_0.001
s off
f 1//1 2//1 3//1
f 4//1 3//1 2//1
f 5//2 6//2 7//2
f 7//2 8//2 5//2
f 4//3 2//3 7//3
f 7//3 6//3 4//3
f 3//4 4//4 6//4
f 6//4 5//4 3//4
f 1//5 3//5 5//5
f 5//5 8//5 1//5
f 2//6 1//6 8//6
f 8//6 7//6 2//6
f 9//6 10//6 11//6
f 12//6 10//6 13//6
f 11//6 12//6 14//6
f 12//6 11//6 10//6
f 15//4 16//4 17//4
f 17//4 16//4 18//4
f 18//4 19//4 17//4
f 18//4 16//4 20//4
f 16//7 21//7 22//7
f 22//8 13//8 20//8
f 13//9 22//9 21//9
f 14//2 23//2 15//2
f 14//10 24//10 25//10
f 24//11 14//11 15//11
f 23//2 14//2 26//2
f 17//12 25//12 24//12
f 26//2 12//2 16//2
f 26//2 16//2 23//2
f 17//13 11//13 25//13
f 16//14 12//14 21//14
f 19//15 27//15 28//15
f 28//16 11//16 17//16
f 11//17 28//17 27//17
f 10//1 29//1 18//1
f 10//18 30//18 31//18
f 30//19 10//19 18//19
f 29//1 10//1 32//1
f 20//20 31//20 30//20
f 32//1 9//1 19//1
f 32//1 19//1 29//1
f 20//21 13//21 31//21
f 19//22 9//22 27//22
f 33//4 34//4 35//4
f 35//4 34//4 36//4
f 37//4 35//4 38//4
f 35//4 37//4 33//4
f 39//6 40//6 41//6
f 41//6 40//6 42//6
f 42//6 43//6 41//6
f 42//6 40//6 44//6
f 43//23 45//23 46//23
f 46//24 37//24 41//24
f 37//25 46//25 45//25
f 34//2 47//2 42//2
f 34//26 48//26 49//26
f 48//27 34//27 42//27
f 47//2 34//2 50//2
f 44//9 49//9 48//9
f 50//2 33//2 43//2
f 50//2 43//2 47//2
f 44//8 36//8 49//8
f 43//11 33//11 45//11
f 40//28 51//28 52//28
f 52//21 36//21 44//21
f 36//20 52//20 51//20
f 38//1 53//1 39//1
f 38//29 54//29 55//29
f 54//22 38//22 39//22
f 53//1 38//1 56//1
f 41//30 55//30 54//30
f 56//1 35//1 40//1
f 56//1 40//1 53//1
f 41//31 37//31 55//31
f 40//32 35//32 51//32
f 57//4 58//4 59//4
f 60//4 58//4 61//4
f 59//4 60//4 62//4
f 60//4 59//4 58//4
f 63//6 64//6 65//6
f 65//6 64//6 66//6
f 66//6 67//6 65//6
f 66//6 64//6 68//6
f 64//33 69//33 70//33
f 70//24 61//24 68//24
f 61//25 70//25 69//25
f 62//2 71//2 63//2
f 62//34 72//34 73//34
f 72//27 62//27 63//27
f 71//2 62//2 74//2
f 65//35 73//35 72//35
f 74//2 60//2 64//2
f 74//2 64//2 71//2
f 65//36 59//36 73//36
f 64//37 60//37 69//37
f 67//38 75//38 76//38
f 76//39 59//39 65//39
f 59//40 76//40 75//40
f 58//1 77//1 66//1
f 58//41 78//41 79//41
f 78//42 58//42 66//42
f 77//1 58//1 80//1
f 68//30 79//30 78//30
f 80//1 57//1 67//1
f 80//1 67//1 77//1
f 68//31 61//31 79//31
f 67//32 57//32 75//32
f 81//6 82//6 83//6
f 83//6 82//6 84//6
f 85//6 83//6 86//6
f 83//6 85//6 81//6
f 87//4 88//4 89//4
f 89//4 88//4 90//4
f 90//4 91//4 89//4
f 90//4 88//4 92//4
f 91//26 93//26 94//26
f 94//8 85//8 89//8
f 85//9 94//9 93//9
f 82//2 95//2 90//2
f 82//23 96//23 97//23
f 96//11 82//11 90//11
f 95//2 82//2 98//2
f 92//25 97//25 96//25
f 98//2 81//2 91//2
f 98//2 91//2 95//2
f 92//24 84//24 97//24
f 91//27 81//27 93//27
f 88//29 99//29 100//29
f 100//31 84//31 92//31
f 84//30 100//30 99//30
f 86//1 101//1 87//1
f 86//28 102//28 103//28
f 102//32 86//32 87//32
f 101//1 86//1 104//1
f 89//20 103//20 102//20
f 104//1 83//1 88//1
f 104//1 88//1 101//1
f 89//21 85//21 103//21
f 88//22 83//22 99//22
f 105//1 106//1 107//1
f 107//1 106//1 108//1
f 108//1 109//1 107//1
f 109//1 108//1 110//1
f 111//2 112//2 113//2
f 113//2 112//2 114//2
f 115//2 116//2 113//2
f 115//2 113//2 114//2
f 117//43 112//43 110//43
f 112//44 117//44 118//44
f 118//45 117//45 108//45
f 119//46 120//46 111//46
f 108//47 114//47 118//47
f 121//48 122//48 113//48
f 109//49 122//49 121//49
f 110//50 120//50 119//50
f 122//48 109//48 111//48
f 113//51 107//51 121//51
f 112//50 120//50 110//50
f 111//46 109//46 119//46
f 123//52 116//52 105//52
f 116//53 123//53 124//53
f 124//54 123//54 107//54
f 125//55 126//55 115//55
f 107//56 113//56 124//56
f 127//57 128//57 114//57
f 106//58 128//58 127//58
f 105//59 126//59 125//59
f 128//60 106//60 115//60
f 114//61 108//61 127//61
f 116//59 126//59 105//59
f 115//55 106//55 125//55
f 129//1 130//1 131//1
f 131//1 130//1 132//1
f 131//1 133//1 134//1
f 133//1 131//1 132//1
f 135//2 136//2 137//2
f 137//2 136//2 138//2
f 139//2 140//2 137//2
f 139//2 137//2 138//2
f 141//62 137//62 131//62
f 137//63 141//63 142//63
f 142//64 141//64 134//64
f 143//65 144//65 140//65
f 134//66 135//66 142//66
f 145//67 146//67 139//67
f 129//68 146//68 145//68
f 131//69 144//69 143//69
f 146//70 129//70 140//70
f 139//71 130//71 145//71
f 137//69 144//69 131//69
f 140//65 129//65 143//65
f 130//72 139//72 147//72
f 136//73 133//73 148//73
f 138//74 149//74 147//74
f 132//75 149//75 138//75
f 148//73 150//73 136//73
f 151//76 152//76 135//76
f 133//77 152//77 151//77
f 130//78 147//78 149//78
f 152//79 133//79 136//79
f 135//80 134//80 151//80
f 138//81 150//81 132//81
f 132//81 150//81 148//81
f 153//1 154//1 155//1
f 155//1 154//1 156//1
f 155//1 157//1 158//1
f 157//1 155//1 156//1
f 159//2 160//2 161//2
f 162//2 160//2 163//2
f 162//2 161//2 160//2
f 162//2 163//2 164//2
f 165//52 163//52 157//52
f 163//53 165//53 166//53
f 166//54 165//54 156//54
f 167//82 168//82 160//82
f 156//56 164//56 166//56
f 169//60 170//60 159//60
f 158//83 170//83 169//83
f 157//84 168//84 167//84
f 170//85 158//85 160//85
f 159//61 155//61 169//61
f 163//84 168//84 157//84
f 160//82 158//82 167//82
f 171//43 161//43 153//43
f 161//44 171//44 172//44
f 172//45 171//45 155//45
f 173//46 174//46 162//46
f 155//47 159//47 172//47
f 175//86 176//86 164//86
f 154//87 176//87 175//87
f 153//88 174//88 173//88
f 176//48 154//48 162//48
f 164//89 156//89 175//89
f 161//88 174//88 153//88
f 162//46 154//46 173//46
f 177//1 178//1 179//1
f 179//1 178//1 180//1
f 177//1 179//1 181//1
f 179//1 180//1 182//1
f 183//2 184//2 185//2
f 186//2 184//2 187//2
f 186//2 185//2 184//2
f 186//2 187//2 188//2
f 189//78 185//78 177//78
f 185//90 189//90 190//90
f 190//91 189//91 181//91
f 191//73 192//73 186//73
f 181//92 183//92 190//92
f 193//93 194//93 188//93
f 178//94 194//94 193//94
f 177//81 192//81 191//81
f 194//79 178//79 186//79
f 188//80 180//80 193//80
f 185//81 192//81 177//81
f 186//73 178//73 191//73
f 180//95 188//95 195//95
f 184//65 179//65 196//65
f 187//96 197//96 195//96
f 182//97 197//97 187//97
f 196//65 198//65 184//65
f 199//98 200//98 183//98
f 179//99 200//99 199//99
f 180//100 195//100 197//100
f 200//70 179//70 184//70
f 183//71 181//71 199//71
f 187//101 198//101 182//101
f 182//101 198//101 196//101
f 211//4 212//4 213//4
f 213//4 214//4 211//4
f 215//4 216//4 211//4
f 211//4 217//4 215//4
f 218//4 219//4 220//4
f 220//4 221//4 218//4
f 222//4 223//4 218//4
f 218//4 224//4 222//4
f 225//4 226//4 227//4
f 227//4 228//4 225//4
f 229//4 230//4 225//4
f 225//4 231//4 229//4
f 232//4 233//4 234//4
f 234//4 235//4 232//4
f 236//4 237//4 232//4
f 232//4 238//4 236//4
f 239//4 240//4 241//4
f 241//4 242//4 239//4
f 243//4 244//4 239//4
f 239//4 245//4 243//4
f 246//4 247//4 248//4
f 248//4 249//4 246//4
f 250//4 251//4 246//4
f 246//4 252//4 250//4
f 253//4 254//4 255//4
f 255//4 256//4 253//4
f 257//4 258//4 253//4
f 253//4 259//4 257//4
g cart.001_cart.001_material_1.001
usemtl material_1.001
f 201//1 202//1 203//1
f 203//1 204//1 205//1
f 203//1 205//1 201//1
f 206//2 207//2 208//2
f 208//2 209//2 210//2
f 208//2 210//2 206//2
f 203//4 202//4 209//4
f 209//4 208//4 203//4
f 204//4 203//4 208//4
f 208//4 207//4 204//4
f 205//5 204//5 207//5
f 207//5 206//5 205//5
f 201//6 205//6 210//6
f 206//6 210//6 205//6
f 202//3 201//3 210//3
f 210//3 209//3 202//3
